<svg width="12" height="12" viewBox="0 0 12 12" fill="none" xmlns="http://www.w3.org/2000/svg">
<path opacity="0.2" d="M11.2916 9.80758L7.4839 5.9999L11.2916 2.19222C11.7027 1.78113 11.7027 1.11931 11.2916 0.708219C10.8805 0.29713 10.2187 0.29713 9.80758 0.708219L5.9999 4.5159L2.19222 0.708219C1.78113 0.29713 1.11931 0.29713 0.708219 0.708219C0.29713 1.11931 0.29713 1.78113 0.708219 2.19222L4.5159 5.9999L0.708219 9.80758C0.29713 10.2187 0.29713 10.8805 0.708219 11.2916C1.11931 11.7027 1.78113 11.7027 2.19222 11.2916L5.9999 7.4839L9.80758 11.2916C10.2187 11.7027 10.8805 11.7027 11.2916 11.2916C11.6998 10.8805 11.6998 10.2158 11.2916 9.80758Z" fill="black"/>
</svg>
