<svg width="16" height="16" viewBox="0 0 16 16" fill="none" xmlns="http://www.w3.org/2000/svg">
<path opacity="0.4" fill-rule="evenodd" clip-rule="evenodd" d="M8 0C12.4183 0 16 3.58172 16 8C16 12.4183 12.4183 16 8 16C3.58172 16 0 12.4183 0 8C0 3.58172 3.58172 0 8 0ZM8 1.6C4.46538 1.6 1.6 4.46538 1.6 8C1.6 11.5346 4.46538 14.4 8 14.4C11.5346 14.4 14.4 11.5346 14.4 8C14.4 4.46538 11.5346 1.6 8 1.6ZM8 11.2C8.44183 11.2 8.8 11.5582 8.8 12C8.8 12.4418 8.44183 12.8 8 12.8C7.55817 12.8 7.2 12.4418 7.2 12C7.2 11.5582 7.55817 11.2 8 11.2ZM8 3.2C9.76731 3.2 11.2 4.63269 11.2 6.4C11.2 7.83585 10.2543 9.05082 8.95184 9.45605L8.8 9.49919V9.6C8.8 10.0418 8.44183 10.4 8 10.4C7.58973 10.4 7.25159 10.0912 7.20538 9.6933L7.2 9.6V8.8C7.2 8.38973 7.50883 8.05159 7.9067 8.00538L8.11941 7.99561C8.9473 7.93453 9.6 7.24349 9.6 6.4C9.6 5.51634 8.88366 4.8 8 4.8C7.11634 4.8 6.4 5.51634 6.4 6.4C6.4 6.84183 6.04183 7.2 5.6 7.2C5.15817 7.2 4.8 6.84183 4.8 6.4C4.8 4.63269 6.23269 3.2 8 3.2Z" fill="#555555"/>
</svg>
